<?xml version="1.0" standalone="no"?><!DOCTYPE svg PUBLIC "-//W3C//DTD SVG 1.1//EN" "http://www.w3.org/Graphics/SVG/1.1/DTD/svg11.dtd"><svg t="1536808917864" class="icon" style="" viewBox="0 0 2035 1024" version="1.1" xmlns="http://www.w3.org/2000/svg" p-id="10162" xmlns:xlink="http://www.w3.org/1999/xlink" width="47.6953125" height="24"><defs><style type="text/css"></style></defs><path d="M2629.9377777 197.65333333c3.09333333-0.10666667 6.08-0.10666667 9.17333333-0.10666666" fill="#ffffff" p-id="10163"></path><path d="M1373.08444437 822.18666667H772.3377777L702.68444437 276.26666667H536.39111103v-74.66666667h231.14666667l17.38666667 136.32h706.24l-118.08 484.26666667z m-535.89333334-74.66666667h478.18666667l81.70666667-334.93333333h-602.66666667l42.77333333 334.93333333z" fill="#ffffff" p-id="10164"></path><path d="M911.43111103 239.04h407.57333334v74.66666667H911.43111103z" fill="#ffffff" p-id="10165"></path><path d="M1308.76444437 899.84m-46.82666667 0a46.82666667 46.82666667 0 1 0 93.65333333 0 46.82666667 46.82666667 0 1 0-93.65333333 0Z" fill="#ffffff" p-id="10166"></path><path d="M856.60444437 899.84m-46.82666667 0a46.82666667 46.82666667 0 1 0 93.65333333 0 46.82666667 46.82666667 0 1 0-93.65333333 0Z" fill="#ffffff" p-id="10167"></path></svg>