<?xml version="1.0" encoding="utf-8"?>
<!-- Generator: Adobe Illustrator 22.0.0, SVG Export Plug-In . SVG Version: 6.00 Build 0)  -->
<svg version="1.1" id="图层_1" xmlns="http://www.w3.org/2000/svg" xmlns:xlink="http://www.w3.org/1999/xlink" x="0px" y="0px"
	 viewBox="0 0 800 800" style="enable-background:new 0 0 800 800;" xml:space="preserve">
<style type="text/css">
	.st0{opacity:0.2;fill:#00203C;enable-background:new    ;}
	.st1{fill:#046AB8;}
	.st2{fill:#181570;}
	.st3{fill:#046AB8;stroke:#181570;stroke-width:4.9238;stroke-miterlimit:10;}
	.st4{fill:#046AB8;stroke:#181570;stroke-width:6.565;stroke-miterlimit:10;}
	.st5{fill:#FCACBB;stroke:#181570;stroke-width:2.4619;stroke-miterlimit:10;}
	.st6{fill:#3D93D6;}
	.st7{fill:#9BDCF7;stroke:#181570;stroke-width:6.565;stroke-miterlimit:10;}
	.st8{opacity:0.1;fill:#046AB8;enable-background:new    ;}
	.st9{fill:#FF3833;stroke:#181570;stroke-width:3.2825;stroke-miterlimit:10;}
	.st10{opacity:0.2;fill:#046AB8;enable-background:new    ;}
	.st11{fill:#9BDCF7;}
	.st12{fill:#CFF4FF;}
	.st13{fill:#9BDCF7;stroke:#181570;stroke-width:3.283;stroke-linecap:round;stroke-miterlimit:10;}
	.st14{fill:#00203C;}
	.st15{fill:#9BDCF7;stroke:#181570;stroke-width:4.7514;stroke-miterlimit:10;}
	.st16{fill:#DB8397;}
	.st17{fill:#FFFFFF;}
	.st18{fill:#FCACBB;}
	.st19{fill:none;stroke:#000000;stroke-width:2.4821;stroke-miterlimit:10;}
	.st20{opacity:0.3;fill:#001F3A;enable-background:new    ;}
	.st21{opacity:0.5;fill:#FFFFFF;enable-background:new    ;}
	.st22{opacity:0.1;fill:#00203C;enable-background:new    ;}
	.st23{fill:#046AB8;stroke:#181570;stroke-width:4.1483;stroke-miterlimit:10;}
	.st24{fill:#9BDCF7;stroke:#181570;stroke-width:6.4148;stroke-miterlimit:10;}
	.st25{fill:#FFFFFF;stroke:#181570;stroke-width:3.1676;stroke-miterlimit:10;}
	.st26{opacity:0.5;fill:#DFE6E9;enable-background:new    ;}
	.st27{fill:#FFFFFF;stroke:#181570;stroke-width:3.0116;stroke-miterlimit:10;}
	.st28{fill:#DFE6E9;}
	.st29{opacity:0.1;fill:#FFFFFF;enable-background:new    ;}
	.st30{opacity:0.5;fill:#F1F1F1;enable-background:new    ;}
	.st31{opacity:0.3;fill:#F1F1F1;enable-background:new    ;}
	.st32{fill:none;stroke:#000000;stroke-width:2.2295;stroke-miterlimit:10;}
	.st33{fill:#5B1905;stroke:#181570;stroke-width:3.2825;stroke-miterlimit:10;}
</style>
<g>
	<ellipse class="st0" cx="1339" cy="230.1" rx="70.6" ry="6.2"/>
	<g>
		<g>
			<path class="st1" d="M1282.5,205.5c-2.5,0-4.1-0.6-4.2-0.6h-0.1h-0.1c-4.1-2.3-3.8-3.4-3.6-4c0.1-0.6,0.6-1.2,2.2-1.2
				c0.9,0,2.4,0.2,4.3,0.7c0.4,0.1,0.8,0.1,1.2,0.1l0,0c7.1,0,14.3-13.5,16.5-18.7l1.8-4.2l1.6,12.9l-0.2,0.4
				c-0.2,0.3-4.2,7.1-10.4,11.7C1288.2,205,1284.8,205.5,1282.5,205.5z"/>
			<path class="st2" d="M1299.9,182.1l1,8c0,0-4,6.8-10.1,11.4c-3,2.3-6,2.8-8.3,2.8s-3.8-0.6-3.8-0.6s-5.2-2.9-2.1-2.9
				c0.8,0,2.1,0.2,4.1,0.6c0.5,0.1,1,0.2,1.5,0.2C1291.7,201.6,1299.9,182.1,1299.9,182.1 M1301.2,172.7l-3.6,8.5l0,0
				c-2.9,6.9-9.7,18-15.4,18c-0.3,0-0.6,0-1-0.1c-2.1-0.5-3.6-0.7-4.6-0.7l0,0c-2.5,0-3.2,1.5-3.4,2.2c-0.5,1.8,0.7,3.4,4.2,5.4
				l0.2,0.1l0.2,0.1c0.2,0.1,2,0.7,4.6,0.7c3.5,0,6.9-1.2,9.8-3.3c6.4-4.8,10.5-11.8,10.7-12.1l0.4-0.7l-0.1-0.8l-1-8L1301.2,172.7
				L1301.2,172.7z"/>
		</g>
		<g>
			<path class="st1" d="M1274.5,205c-0.5,0-1.1-0.1-1.7-0.2c-5.5-1.2-7.6-8.2-7.7-8.5l-0.3-0.9l0.9-0.5c0.2-0.1,1.6-0.9,3.8-0.9
				c2.1,0,4.2,0.7,6.1,2c2.1,1.4,3.2,2.6,3.4,3.7c0,0.3,0,0.5,0,0.8C1279,202.4,1277.7,205,1274.5,205z"/>
			<path class="st2" d="M1269.5,195.3c1.5,0,3.4,0.4,5.4,1.8c3.5,2.4,2.9,3.3,2.9,3.3s0,3.4-3.4,3.4c-0.4,0-0.9-0.1-1.4-0.2
				c-4.8-1.1-6.7-7.6-6.7-7.6S1267.5,195.3,1269.5,195.3 M1269.5,192.8L1269.5,192.8c-2.6,0-4.3,0.9-4.4,1l-1.7,1l0.6,1.9
				c0.1,0.3,2.4,7.9,8.6,9.3c0.7,0.2,1.4,0.2,2,0.2c2.3,0,4.2-1.1,5.2-3.1c0.5-0.9,0.6-1.8,0.7-2.4c0.1-0.4,0.1-0.8,0-1.2
				c-0.3-1.5-1.5-2.9-4-4.5C1274.2,193.6,1271.9,192.8,1269.5,192.8L1269.5,192.8z"/>
		</g>
	</g>
	<path class="st3" d="M1330.6,187.8l-0.6,40.1h-15.2l-2.8-29.5C1312,198.4,1306.7,172.8,1330.6,187.8z"/>
	<path class="st3" d="M1306.8,155.5l-19.5,29.9c0,0-5.8,1.6-9.9,0s-3.2-8.3-3.2-8.3l12-25C1286.3,152.1,1294.9,127.7,1306.8,155.5z"
		/>
	<path class="st3" d="M1381.2,141.4l23.2,26.4l-9.3,13.3l-20-17.3C1375.1,163.8,1355.1,150.5,1381.2,141.4z"/>
	<path class="st3" d="M1374.6,191.5l-10.1,36.4h-13.1l3.1-30.8C1354.4,197.1,1354.2,170.9,1374.6,191.5z"/>
	<path class="st4" d="M1231.5-53.9c9.6-4.1,29.6-10.1,33.2-2l-7.8,13.6l60.4,126.6c6.6,13.8-18.6,3.2-23.4,8.5
		c-2.2,2.4-17.6,5.8-24.9,21.1l-8.7,24.1c-6.8,16.3-27.2,26-40.8,25c-11.2-2.3-15.2-14.3-18.3-29.6c0,0-23.5-114.7-0.7-158.3
		C1209.1-41.2,1231.5-53.9,1231.5-53.9z"/>
	<path class="st5" d="M1242.6-32.1c0,0-24.5-1.6-35.2,27.1c-17.9,48-6.1,91.9-2.3,120.6c3.4,25.9,8.2,25.5,16.4,23.6
		c4-0.9,10.6-12.5,10.6-12.5s-6.6,14.2-1.9,14.4c3.3,0.2,9.6-3.4,14.8-25.8C1253.4,79.6,1280.7-52,1242.6-32.1z"/>
	<path class="st4" d="M1451.6-53.9c-9.6-4.1-29.6-10.1-33.2-2l7.8,13.6l-60.4,126.6c-6.6,13.8,18.6,3.2,23.4,8.5
		c2.2,2.4,17.6,5.8,24.9,21.1l8.7,24.1c6.8,16.3,27.2,26,40.8,25c11.2-2.3,15.2-14.3,18.3-29.6c0,0,23.5-114.7,0.7-158.3
		C1474.1-41.2,1451.6-53.9,1451.6-53.9z"/>
	<path class="st6" d="M1432.9-47.7c0,0,29,4.1,47.4,32c9.9,15,8.9,51.7,8.9,51.7s1.3-34.2-2.8-47.6c-4.6-14.8-27.5-50.1-63.4-46
		C1432.9-47.7,1432.9-47.7,1432.9-47.7z"/>
	<path class="st5" d="M1445.1-32.1c0,0,22.2,8.6,30.6,29.5c16,40.2,3.4,84.8,1.3,116.1c-1.7,26.1-4.3,29.3-12.5,27.4
		c-4-0.9-6.9-8.4-6.9-8.4s1.4,9.6-3.3,9.8c-3.3,0.2-6.5-4.5-11.7-26.9C1434.3,79.6,1407.1-52,1445.1-32.1z"/>
	<path class="st6" d="M1250.3-47.7c0,0-29,4.1-47.4,32c-9.9,15-9.1,51.7-9.1,51.7s-1.2-34.2,3-47.6c4.6-14.8,27.5-50.1,63.4-46
		C1250.3-47.7,1250.3-47.7,1250.3-47.7z"/>
	<path class="st7" d="M1386.9,181.9c0.2,21.8-20.6,25-46.5,25.4s-47.1-2.3-47.3-24.2c-0.2-21.8,21-47.2,46.9-47.5
		S1386.7,160.1,1386.9,181.9z"/>
	<path class="st7" d="M1449.4-1.5c6.5,72.1,73.7,155.3-111,155.3s-114.3-80-110.1-152.3c3.3-55.6,47.1-76.2,110.6-77
		C1402.4-76.4,1444.6-55.1,1449.4-1.5z"/>
	<path class="st8" d="M1316.1,32.8c0.8-0.8,11.5-9,26.3-9c18.1,0,25.4,7.4,25.4,7.4s14.8-12.3,28.7-12.3
		c-14-7.4-40.2-11.5-55.8-10.7c-15.6,0.8-38.6,3.3-53.3,10.7C1305.4,18.8,1316.1,32.8,1316.1,32.8z"/>
	<path class="st9" d="M1315,114l30.8,1.6l-0.2,13.6c0,0-20.8,1.8-32.6-6.2C1309.8,120.8,1311.3,114.8,1315,114z"/>
	<path class="st10" d="M1222.5,105c18.5,33.6,37.7,17.6,61.3,22.2c17.1,3.3,28.8,19.3,54.9,18.9c31.5-0.5,42.7-13.1,53.4-18.9
		c7.1-3.8,31.3,2,44.9-8.3c7-5.3,10.6-14.6,14.9-26.1c12-32.2-3-73.9-3-73.9s26.7,78.8,9.9,100.1c-16.5,20.9-40.4,32.8-127,32
		c-63.8-0.6-92.7-9.4-108.3-28.3c-18.1-21.8-5.3-56.7,2.2-85.8C1225.5,45.5,1214.1,89.6,1222.5,105z"/>
	<path class="st10" d="M1300.6,164.1c0,0-7.3,17.3,4.9,26.4c12.3,9,33.2,6.6,33.2,6.6s26.7,0.8,35.3-7.4c8.7-8.2,9.4-24.4,9.4-24.4
		s10.1,22.6-3.6,32.1c-13.7,9.6-42.7,8.5-42.7,8.5s-37,1.3-41.1-14S1300.6,164.1,1300.6,164.1z"/>
	<path class="st2" d="M1299.5,43.8c0,0,2.2,1.5,3.1,2.5c-0.9,2.8-3.4,5-6.6,5.4c-4.3,0.5-8.1-2.5-8.6-6.6c-0.5-4.2,2.6-7.9,6.8-8.4
		c3.4-0.4,6.5,1.4,7.9,4.3C1301.9,41.8,1299.5,43.8,1299.5,43.8z"/>
	<g>
		<ellipse class="st11" cx="1283.9" cy="82" rx="19.1" ry="14.8"/>
		<ellipse class="st11" cx="1396.2" cy="82" rx="19.1" ry="14.8"/>
	</g>
	<path class="st0" d="M1302.9,70.5c0,0-4.9,10.7,0,22.2s18.8,27.9,24.6,48.4c5.7,20.5,9.6,34.3,16.4,38.6
		c15.6,9.8,39.4,15.6,39.4,15.6s6.7-3.6,4.1-8.2c-14.8-26.1-72.8-112.7-75.5-114.1C1308.7,71.3,1302.9,70.5,1302.9,70.5z"/>
	<path class="st12" d="M1380.9,73c0,0,6.9-5.7,13.8-5.7c9.9,0,16,4.9,16,4.9s-6.1-2.5-16-2.5S1380.9,73,1380.9,73z"/>
	<path class="st13" d="M1380,57c0.7,3.1,0.2,2.6,0.3,6.4c0.3,10.7,0.7,19-2.2,25.4c-9.1,20.3-4.7,36-3.3,45.8
		c1.5,9.8,0.7,9.8,2.9,19.7c5,22.4,21.8,13.1,21.8,13.1c16.7-5.7,24,0.8,24.7,9c1.6,18.6-18.2,23.8-29.1,18.1
		c-11.7-6.2-20.2-7.2-24.9-9.8c-19.4-10.7-18.3-13.1-30.6-36.1c0,0-14.3-29.7-30.3-61.5c-5-9.9-7.1-18.2-4.4-28.9"/>
	<path class="st1" d="M1332.8-57.5"/>
	
		<ellipse transform="matrix(0.6295 -0.777 0.777 0.6295 381.3058 1162.7279)" class="st1" cx="1409.9" cy="181.5" rx="12.7" ry="10.3"/>
	
		<ellipse transform="matrix(0.6295 -0.777 0.777 0.6295 381.0169 1161.7961)" class="st14" cx="1408.7" cy="181.4" rx="11.2" ry="9"/>
	<path class="st10" d="M1317.5,79.5c6.9,9.8,23.7,16,29.9,51.1c6,33.9,13.5,39.6,18.8,41.2c5.3,1.6,17.1,13.3,21.7,10.3
		s3.1-6.3,8.4-9.5c1.5-0.8,6-1.6,6-1.6s-4.5,4-6,10.5c-1,4.2-1.6,8,2.2,12.1c-2.3-0.8-4.8-1.7-7.6-2.5c-11.5-4.2-15.5-4.3-19.4-6.4
		c-4.5-2.4-17.2-5.8-25.9-27.5c-8.7-21.7-34.3-68.6-34.3-68.6s-10.9-14.4-5.8-30.1C1309.5,72.5,1310.5,69.5,1317.5,79.5z"/>
	<path class="st12" d="M1240.6-32.1c0,0,33.6-36.9,94.4-36.9c57.4,0,93.4,27.1,103.3,37.7c0,0-21.4-45.1-99.3-44.3
		C1261-74.7,1240.6-32.1,1240.6-32.1z"/>
	<path class="st12" d="M1268.6,73c0,0,6.9-5.7,13.8-5.7c9.9,0,16,4.9,16,4.9s-6.1-2.5-16-2.5S1268.6,73,1268.6,73z"/>
	<path class="st15" d="M1266,32.8"/>
	<path class="st16" d="M1229.1-21.4c0,0-9,5.7-15.6,20.5c-5.5,12.5-10.9,29.9-14,46.8c0-18.9,7.2-49.6,14.8-61.5
		c5.7-9,17.2-13.1,17.2-13.1L1229.1-21.4z"/>
	<path class="st16" d="M1448.2-23c0,0,9,5.7,15.6,20.5c5.5,12.5,15.8,29.9,18.9,46.8c0-18.9-4.6-40.2-11.5-52.5
		c-8.2-14.8-27.1-23-27.1-23L1448.2-23z"/>
	<path class="st17" d="M1358.1,41c0,0-0.5-2.3,2.7-1.2s9.3,8.1,10,9.8c0.7,1.7,0.6,2.5-1,2.4S1358.1,41,1358.1,41z"/>
	<g>
		<path class="st18" d="M1337.8,195.4c-1.3,0-2.4-1.2-2.3-2.5c0-1.3,1.1-2.3,2.4-2.3l1.9,0.1c1.3,0,2.4,1.2,2.3,2.5
			c0,1.3-1.1,2.3-2.4,2.3L1337.8,195.4z"/>
		<path class="st2" d="M1337.9,191.1C1337.9,191.1,1338,191.1,1337.9,191.1l1.9,0.1c1,0,1.9,0.9,1.8,2c0,1-0.9,1.8-1.9,1.8
			c0,0,0,0-0.1,0l-1.8-0.1c-1,0-1.9-0.9-1.8-2C1336.1,191.9,1336.9,191.1,1337.9,191.1 M1337.9,190.1c-1.6,0-2.8,1.2-2.9,2.8
			c0,0.8,0.2,1.5,0.8,2.1c0.5,0.6,1.2,0.9,2,0.9l1.8,0.1h0.1c1.6,0,2.8-1.2,2.9-2.8c0-0.8-0.2-1.5-0.8-2.1c-0.5-0.6-1.2-0.9-2-0.9
			L1337.9,190.1L1337.9,190.1L1337.9,190.1z"/>
	</g>
	<path class="st16" d="M1336.2,193.2c0,0,0.8-0.8,1.6-0.8c0.8,0,3,1.1,3.5,1.7c1.2-1,0.2-3-2.3-3S1336.2,192.4,1336.2,193.2z"/>
	<path class="st0" d="M1299.6,156.7c0,0-6.7,2.7-12.3,7.4c-5.1,4.2-9.1,10.4-9.8,12.3c0-6.6,9.8-21.3,9.8-21.3
		S1299.6,153.4,1299.6,156.7z"/>
	<path class="st17" d="M1373.1,61.5L1373.1,61.5c-1.6,0-2.9-1.3-2.9-2.9l0,0c0-1.6,1.3-2.9,2.9-2.9l0,0c1.6,0,2.9,1.3,2.9,2.9l0,0
		C1376,60.2,1374.7,61.5,1373.1,61.5z"/>
	<path class="st17" d="M1415.3-35.3c0,0-0.5-2.3,2.7-1.2s9.3,8.1,10,9.8c0.7,1.7,0.6,2.5-1,2.4C1425.3-24.4,1415.3-35.3,1415.3-35.3
		z"/>
	<path class="st17" d="M1436.3-14.8L1436.3-14.8c-1.6,0-2.9-1.3-2.9-2.9l0,0c0-1.6,1.3-2.9,2.9-2.9l0,0c1.6,0,2.9,1.3,2.9,2.9l0,0
		C1439.2-16.1,1437.9-14.8,1436.3-14.8z"/>
	<g>
		<g>
			<g>
				<circle class="st19" cx="1297.5" cy="67.5" r="12.6"/>
				<circle class="st20" cx="1297.5" cy="67.5" r="11.6"/>
			</g>
			<polygon class="st21" points="1302.9,77.4 1302,77.8 1289.6,59.1 1290.8,58.4 			"/>
			<path class="st21" d="M1292.3,57.5c0.7-0.4,10.5-4.5,15.4,5.5c3.5,7.2-3.7,13.9-3.7,13.9L1292.3,57.5z"/>
		</g>
		<g>
			<g>
				<circle class="st19" cx="1386.1" cy="67.5" r="12.6"/>
				<circle class="st20" cx="1386.1" cy="67.5" r="11.6"/>
			</g>
			<polygon class="st21" points="1391.6,77.4 1390.6,77.8 1378.3,59.1 1379.4,58.4 			"/>
			<path class="st21" d="M1380.9,57.5c0.7-0.4,10.5-4.5,15.4,5.5c3.5,7.2-3.7,13.9-3.7,13.9L1380.9,57.5z"/>
		</g>
		<path class="st14" d="M1373.5,65.6l-25.1-3.9c-4.3-0.7-8.7-0.7-13,0l-25.1,3.9v-2.5l25.1-4.7c4.3-0.7,8.7-0.7,13,0l25.1,4.7V65.6z
			"/>
	</g>
	<path class="st0" d="M1299.6,84.5c0,1.1-4.6-0.8-10.3-0.8S1279,84,1279,82.9c0-1.1,4.6-3.3,10.3-3.3S1299.6,83.3,1299.6,84.5z"/>
	<path class="st0" d="M1381.7,84.5c0,1.1,4.6-0.8,10.3-0.8c5.7,0,10.3,0.3,10.3-0.8c0-1.1-4.6-3.3-10.3-3.3
		C1386.3,79.5,1381.7,83.3,1381.7,84.5z"/>
	<path class="st22" d="M1309.1,84.8c7.9-2.9,10.2-12.7,10.2-12.7s12.3-2.5,19.7-2.5c7.4,0,21.3,0.8,25.4,4.9
		c3.3,10.7,12.3,10.7,12.3,10.7l3-2.3c0,0,1.1-0.2-5.3-2s-5.9-10.5-6.7-11.3c-0.8-0.8-18.1-3.3-28.7-3.3s-23.8,4.1-23.8,4.1
		s0.8-0.8-0.8,4.9c-1.6,5.7-9,6.6-9,6.6L1309.1,84.8z"/>
	<g>
		<path class="st10" d="M1366.9,107.2l-3.2-1.7c-4.8-2.5-9.5-2-13.8,1.5l-2.9,2.3c-0.6,0.1-1.2-1.3-1.3-3.1l0,0
			c-0.1-1.2-0.1-2,0.8-3.3c0,0,5.4-7.7,16.7-3.8l3.2,1.7c0.6-0.1,1.2,1.3,1.3,3.1l0,0C1367.9,105.6,1367.5,107.1,1366.9,107.2z"/>
		<path class="st10" d="M1346.1,107.2c0,0,0.2-2.2,0.9-3s4.2-4.1,8.5-4.9c4.2-0.8,8.5,2.5,9.2,4.1s0.8,3.1,0.8,3.1s2,1,2.1,0.2
			c0-0.8,1.7-4.5-3.5-7.4c-6.4-3.6-16.4,0.3-17.6,4.1C1345.3,106.5,1346.1,107.2,1346.1,107.2z"/>
	</g>
	<g>
		<path class="st10" d="M1366.2,116.1l-2.1-1.2c-3.1-1.9-6.2-1.5-9,1.1l-1.9,1.7c-0.4,0-0.8-1-0.9-2.3l0,0c-0.1-0.9-0.1-1.5,0.5-2.5
			c0,0,3.6-5.8,10.9-2.8l2.1,1.2c0.4,0,0.8,1,0.9,2.3l0,0C1366.8,115,1366.6,116.1,1366.2,116.1z"/>
		<path class="st10" d="M1352.6,116.1c0,0,0.1-1.6,0.6-2.3c0.5-0.6,2.8-3.1,5.5-3.7s5.5,1.9,6,3.1s0.5,2.3,0.5,2.3s1.3,0.8,1.3,0.1
			c0-0.6,1.1-3.4-2.3-5.6c-4.2-2.7-10.7,0.2-11.5,3.1C1352.1,115.6,1352.6,116.1,1352.6,116.1z"/>
	</g>
	<g>
		<path class="st10" d="M1365.6,125.6l-1.5-0.9c-2.2-1.3-4.4-1.1-6.4,0.8l-1.4,1.2c-0.3,0-0.6-0.7-0.6-1.7l0,0c0-0.6,0-1.1,0.4-1.8
			c0,0,2.5-4.1,7.8-2l1.5,0.9c0.3,0,0.6,0.7,0.6,1.7l0,0C1366.1,124.8,1365.9,125.6,1365.6,125.6z"/>
		<path class="st10" d="M1355.9,125.6c0,0,0.1-1.2,0.4-1.6s2-2.2,4-2.6c1.9-0.4,4,1.3,4.3,2.2s0.4,1.7,0.4,1.7s1,0.5,1,0.1
			s0.8-2.4-1.6-4c-3-1.9-7.7,0.1-8.2,2.2C1355.6,125.2,1355.9,125.6,1355.9,125.6z"/>
	</g>
	<path class="st2" d="M1393.7,44c0,0,2.5-1.8,3.6-2.8c-1-3.2-3.8-5.7-7.5-6.2c-4.8-0.6-9.2,2.8-9.8,7.6c-0.5,4.7,2.9,9,7.8,9.6
		c3.9,0.4,7.4-1.6,9-4.9C1396.4,46.3,1393.7,44,1393.7,44z"/>
	
		<ellipse transform="matrix(0.9714 -0.2375 0.2375 0.9714 21.1625 298.6855)" class="st18" cx="1250.2" cy="61.5" rx="23.7" ry="12.2"/>
	
		<ellipse transform="matrix(0.2375 -0.9714 0.9714 0.2375 1028.2903 1442.9678)" class="st18" cx="1433.3" cy="66.5" rx="12.2" ry="23.7"/>
</g>
<g>
	<ellipse class="st0" cx="402.8" cy="767.5" rx="169.4" ry="14.7"/>
	<g>
		<path class="st23" d="M498.6,584.7c0,0,23.2,20.6,23.2,31.3c0,10.7-14.5,35.8-14.5,35.8s22,13.4,30.5,3.4
			c5.9-6.9,0.5-15.5,0.5-15.5s16.3-15.4,16-27.5s-16.4-45.1-16.4-45.1S523.4,527.5,498.6,584.7z"/>
	</g>
	<g>
		<g>
			<path class="st1" d="M513.5,712.7c-4.7,0-11.6-1.4-18.5-8.2c-12.8-12.5-21.1-31-21.4-31.7l-0.1-0.4l2.9-30.1l2.3,7.4
				c4.7,14.6,20.2,52.5,35.4,52.5c0.9,0,1.8-0.1,2.7-0.4c4.2-1.2,7-1.8,9-1.8c2.5,0,3.3,1,3.5,2c0.7,2.1-1.7,5.1-6.9,9l-0.1,0.1
				h-0.1C521.9,711.1,518.5,712.7,513.5,712.7z"/>
			<path class="st2" d="M477.1,650.3c0,0,17.2,53.5,36.9,53.5c1,0,2.1-0.1,3.1-0.5c4.2-1.3,6.9-1.7,8.6-1.7c6.5,0-4.3,7.9-4.3,7.9
				s-3.1,1.6-7.9,1.6c-4.7,0-11.1-1.6-17.5-7.8c-12.6-12.5-21.1-31.3-21.1-31.3L477.1,650.3 M475.4,634.4l-1.4,15.5l-2.1,21.9
				l-0.1,0.9l0.4,0.8c0.4,0.8,8.9,19.4,21.8,32.2c7.3,7.2,14.7,8.7,19.7,8.7c5.3,0,9-1.7,9.4-2l0.3-0.1l0.3-0.1
				c8.9-6.5,7.8-9.6,7.4-10.8c-0.4-1.2-1.6-3-5.1-3c-2.1,0-5.2,0.7-9.5,1.8c-0.8,0.3-1.4,0.4-2.2,0.4c-12.8,0-27.5-31.5-33.9-51.3
				L475.4,634.4L475.4,634.4z"/>
		</g>
		<g>
			<path class="st1" d="M530.4,711.5c-6.6,0-8.6-6.9-8.7-10.8c-0.4-1.4,0-4.6,6.6-10.4c4-3.5,8.2-5.3,12.5-5.3
				c4.6,0,7.6,2.2,7.7,2.2l0.8,0.7l-0.3,1c-0.1,0.8-4.4,18.9-15.2,22.1C532.6,711.2,531.4,711.5,530.4,711.5L530.4,711.5z"/>
			<path class="st2" d="M540.7,686.5c4.2,0,6.8,2,6.8,2s-4,18-14.1,21c-1.2,0.4-2.1,0.5-3,0.5c-7,0-7-9.5-7-9.5s-1.3-2.5,6-9
				C533.6,687.5,537.6,686.5,540.7,686.5 M540.7,683.2c-4.7,0-9.3,2-13.5,5.7c-6.6,5.9-7.7,9.6-7.2,12c0,1,0.3,3.1,1,5.2
				c1.7,4.4,5,6.8,9.3,6.8c1.2,0,2.6-0.3,3.9-0.7c5.1-1.6,9.4-6,12.9-13.3c2.3-5.1,3.5-9.8,3.5-10l0.5-2.1l-1.7-1.3
				C549,685.6,545.8,683.2,540.7,683.2L540.7,683.2z"/>
		</g>
	</g>
	<path class="st3" d="M483,677.8l-17.7,63.7c-1.4,5.1,0.7,10.4,5,13.3l2.1,1.3c3,5.1-0.7,11.5-6.5,11.5l-25.5-1.6
		c-7.2-0.4-12.5-6.8-11.7-13.8l-6.9-63.7C421.5,688.3,434.1,628.2,483,677.8z"/>
	<path class="st3" d="M332,649.7l-7,65.8c-0.5,5.2-4.4,9.4-9.5,10.4l-2.5,0.5c-4.7,3.6-3.6,10.9,1.8,13.2l24.4,7.9
		c6.8,2.2,14.1-1.7,16-8.6l30-56.7C385.1,682.3,395.5,621.9,332,649.7z"/>
	<g>
		<path class="st4" d="M134.2,88.9c22.7-10.8,69.7-27.4,79.5-8.3l-17.3,33.4l158.4,296.9c17.2,32.3-44.3,9.8-55.1,22.9
			c-5.1,6.1-41.6,15.8-57.5,53.3L224,545.8c-14.6,39.9-62.4,65.3-95.1,64.4c-27-4.3-38-32.7-47.2-68.9c0,0-68.7-272.3-18.8-379.3
			C81.7,121.8,134.2,88.9,134.2,88.9z"/>
		<path class="st5" d="M163.1,140.1c0,0-58.8-1.3-81.3,68.7c-37.7,116.9-4.7,221,7.6,289.4c11.1,61.6,22.4,60.2,41.8,54.8
			c9.5-2.6,24.1-31,24.1-31s-14.3,34.8-3,34.8c7.9,0,22.7-9.2,32.7-63.4C201.2,406.5,252.1,88.1,163.1,140.1z"/>
		<path class="st6" d="M179.8,101.9c0,0-69.2,13-110.1,81.8c-22,37-16.2,124.9-16.2,124.9s-6.5-81.9,2-114.4
			c9.4-36,60.5-123,147.1-117C179.8,101.9,179.8,101.9,179.8,101.9z"/>
		<path class="st16" d="M131.9,167c0,0-21,14.7-35.2,50.8c-12,30.5-22.8,72.8-28.4,113.6c-2.1-45.2,11.9-119.7,28.8-149
			c12.8-22.3,39.9-33.4,39.9-33.4L131.9,167z"/>
	</g>
	<g>
		<path class="st4" d="M639.6,89.3c-23.8-7.9-72.6-18.6-79.9,1.6l21.2,31L460.3,435.9c-13.2,34.1,45.1,4.2,57.6,16
			c5.7,5.5,43.1,10.6,63.6,45.9l25.4,56c19.4,37.8,70,57.1,102.3,52.2c26.3-7.6,33.7-37.1,38.3-74.1c0,0,34.7-278.7-28-378.6
			C695.7,115.5,639.6,89.3,639.6,89.3z"/>
		<path class="st6" d="M596.1,107.8c0,0,70.2,4.4,119.3,67.6c26.3,34,31,121.9,31,121.9s-3.3-82.1-15.6-113.3
			c-13.7-34.5-75.2-114.5-160.4-98C596.1,107.8,596.1,107.8,596.1,107.8z"/>
		<path class="st5" d="M628.2,142.7c0,0,54.7,16.3,78.7,64.9c45.9,93.2,24,202.1,24.9,277.4c0.8,62.7-4.8,70.7-24.8,67.7
			c-9.8-1.4-18-18.9-18-18.9s5.2,22.7-6,24.2c-7.9,1-16.4-9.6-33.1-62.1C623.3,411.7,533.5,102,628.2,142.7z"/>
		<path class="st16" d="M637.2,163.7c0,0,22.7,12,41.2,46.1c15.6,28.8,43.4,68.5,53.9,108.4c-3.5-45.1-18.6-95.2-37.3-123.5
			c-22.4-33.7-69-49.9-69-49.9L637.2,163.7z"/>
	</g>
	<g>
		<path class="st7" d="M517.4,642.4c0.5,52.4-49.4,60.1-111.5,60.8c-62.1,0.8-113-5.6-113.5-58c-0.5-52.4,50.4-113.2,112.6-114
			C467.1,530.5,516.8,590.1,517.4,642.4z"/>
		<path class="st10" d="M310.3,599.7c0,0-17.6,41.6,11.9,63.3c29.4,21.6,79.6,15.8,79.6,15.8s64,2,84.8-17.7s22.5-58.6,22.5-58.6
			s24.2,54.2-8.6,77.1C467.7,702.5,398,699.9,398,699.9s-88.9,3.3-98.8-33.6C289.2,629.4,310.3,599.7,310.3,599.7z"/>
		<g>
			<g>
				<path class="st18" d="M433.5,674.2c-1.7,0-3.1-1.6-3-3.3l0.1-4.2c0-1.7,1.4-3,3.1-3l8.6,0.3c1.7,0,3.1,1.6,3,3.3l-0.1,4.2
					c0,1.7-1.4,3-3.1,3L433.5,674.2z"/>
				<path class="st2" d="M433.7,664.6C433.7,664.6,433.9,664.6,433.7,664.6l8.6,0.3c1.3,0,2.5,1.2,2.3,2.6l-0.1,4.2
					c0,1.3-1.2,2.3-2.5,2.3c0,0,0,0-0.1,0l-8.5-0.3c-1.3,0-2.5-1.2-2.3-2.6l0.1-4.2C431.4,665.6,432.4,664.6,433.7,664.6
					 M433.7,663.2L433.7,663.2c-2.1,0-3.6,1.6-3.8,3.6l-0.1,4.2c0,1,0.3,2,1,2.7c0.7,0.8,1.6,1.2,2.6,1.2l8.5,0.3h0.1
					c2.1,0,3.6-1.6,3.8-3.6l0.1-4.2c0-1-0.3-2-1-2.7c-0.7-0.8-1.6-1.2-2.6-1.2l-8.5-0.3H433.7L433.7,663.2z"/>
			</g>
			<path class="st16" d="M431.5,669.5c0,0,2-2,3.9-2c2,0,7.3,2.7,8.3,4.2c2.9-2.3,0.5-7.2-5.5-7.2
				C432.5,664.7,431.5,667.6,431.5,669.5z"/>
		</g>
	</g>
	<path class="st24" d="M650,198.1c22.3,172.2,184.6,364.1-238,384.1c-422.6,20.1-269.8-179.3-267.6-353.1
		c1.7-133.7,99.9-187.6,245.1-196.5S633.4,70.4,650,198.1z"/>
	<path class="st8" d="M347.3,284.7c2-2,27.6-21.6,63.1-21.6c43.3,0,65.3,6.6,65.3,6.6s-9.6,45.6,12,74.4
		c9.3,12.4,21.6-86.4,76.7-81.6c-33.6-31.1-113.7-42.7-151.1-40.8c-37.4,2-99.3,11.9-134.7,29.6
		C321.7,251.2,347.3,284.7,347.3,284.7z"/>
	<g>
		<ellipse class="st25" cx="267.6" cy="324" rx="61.9" ry="61"/>
		<path class="st26" d="M219.3,292.6c0,0-5.9,37.4,7.8,53.2c14.7,16.8,51.2,23.6,67,19.7c12.8-3.3,21.6-9.9,21.6-9.9
			s-7.8,13.8-17.7,17.7c-6.8,2.7-45.3,19.4-72.8-9.9C193.7,330,218.4,292.1,219.3,292.6z"/>
		<g>
			<ellipse class="st11" cx="270.1" cy="402.9" rx="45.9" ry="35.4"/>
		</g>
		<ellipse class="st14" cx="289.8" cy="325.1" rx="42.2" ry="45.3"/>
		<path class="st27" d="M613.8,327c0,32-27.5,58-61.4,58S491,359.1,491,327c0-39.3,28.5-63.4,62.4-63.4S613.8,295,613.8,327z"/>
		<path class="st28" d="M505.6,292.6c0,0-5.9,37.4,7.8,53.2c14.7,16.8,51.2,23.6,67,19.7c12.8-3.3,21.6-9.9,21.6-9.9
			s-7.8,13.8-17.7,17.7c-6.8,2.7-45.3,19.4-72.8-9.9C480.1,330,504.7,292.1,505.6,292.6z"/>
		<ellipse class="st14" cx="561.3" cy="325.1" rx="38.2" ry="40.9"/>
		<path class="st12" d="M233.5,381.2c0,0,16.5-13.8,33-13.8c23.8,0,38.6,11.9,38.6,11.9s-14.7-5.9-38.6-5.9S233.5,381.2,233.5,381.2
			z"/>
		<circle cx="283.6" cy="310.5" r="26.4"/>
		<circle cx="549.9" cy="317.7" r="26.4"/>
		<path class="st17" d="M307,299.5c4.8,7.3,5.5,15.6,0.7,15.6c-2.5,0-1-7-5.9-14.3c-4.8-7.3-14.1-7.8-12.1-9.3
			C291.6,290.2,302.1,292.4,307,299.5z"/>
		<path class="st17" d="M570.9,299.5c4.8,7.3,5.5,15.6,0.7,15.6c-2.5,0-1-7-5.9-14.3c-4.8-7.3-14.1-7.8-12.1-9.3
			C555.5,290.2,566.1,292.4,570.9,299.5z"/>
		<circle class="st29" cx="284.8" cy="304.5" r="18"/>
		<circle class="st30" cx="275.2" cy="299.7" r="8.3"/>
		<circle class="st31" cx="241.6" cy="345.3" r="8.3"/>
		<circle class="st31" cx="515.1" cy="345.3" r="8.3"/>
		<circle class="st30" cx="541.5" cy="297.3" r="8.3"/>
		<g>
			<ellipse class="st11" cx="543.5" cy="402.9" rx="45.9" ry="35.4"/>
		</g>
		<g>
			<path class="st2" d="M543.9,262.7c0,0,44.6-21.6,73.7,32.2c7.8,11.6,22,8.5,22,8.5s-4.3,26.6-24.1,12.4c0.7,12-7.7,25.4-7.7,25.4
				s9.5-34.8-15.2-56.9C566.3,260.5,543.9,262.7,543.9,262.7z"/>
		</g>
		<g>
			<path class="st2" d="M280,265.3c0,0-37.3-22-76.7,24.4c-9,10.7-22.8,6.1-22.8,6.1s1.4,26.8,22.8,14.7c-1.8,11.9,5,26.1,5,26.1
				s-5.9-35.6,21.1-55.1C258,260.7,280,265.3,280,265.3z"/>
		</g>
		<path class="st2" d="M226.1,368.1c0,0,1.7,5.9-5.7,4.4c-7.4-1.6-6.3-3.6-6.3-3.6s-3,14.9,22,9.9
			C238.4,374.6,226.1,368.1,226.1,368.1z"/>
	</g>
	<path class="st12" d="M167.7,146.5c0,0,72.6-92,210.8-98.2c130.7-5.9,215.5,55.2,239.2,79.9c0,0-53.5-105.9-230.9-96
		S167.7,146.5,167.7,146.5z"/>
	
		<ellipse transform="matrix(0.983 -0.1837 0.1837 0.983 -37.9135 55.0509)" class="st1" cx="278.2" cy="232.2" rx="32.3" ry="16.5"/>
	<ellipse transform="matrix(0.9714 -0.2375 0.2375 0.9714 -86.59 53.3438)" class="st18" cx="178.1" cy="386" rx="32.4" ry="16.7"/>
	<g>
		<g>
			<circle class="st32" cx="510.7" cy="309.7" r="27.2"/>
			<circle class="st20" cx="510.7" cy="309.7" r="25.1"/>
		</g>
		<polygon class="st21" points="528.3,326.2 526.6,327.9 489.1,297.5 491,295.1 		"/>
		<path class="st21" d="M493.4,292.4c1.3-1.3,18.8-16.2,35.3,1.2c11.9,12.4,1.4,31,1.4,31L493.4,292.4z"/>
	</g>
	<ellipse transform="matrix(0.3122 -0.95 0.95 0.3122 70.7386 869.8931)" class="st18" cx="636.1" cy="386.1" rx="16.7" ry="32.4"/>
	<path class="st33" d="M351.9,472.4c38.4,14.3,134.3-13.7,134.3,11.1c0,17.8-39.7,40.3-62,51.5c-9.6,4.8-20.8,5.2-30.9,0.9
		c-14.7-6.3-35.8-17.2-46-31.5C337.8,490.7,324.9,462.3,351.9,472.4z"/>
	<path class="st5" d="M469.3,503c0,0-56.3,1.7-80.1-0.7c-18.9-2-26.4,7.2-40.8,4.8c12,21.6,67.1,34,81.4,25
		c30.5-19.2,39.1-25.5,39.1-26.1C469,505.1,469.3,503,469.3,503z"/>
	<path class="st10" d="M135.2,467.6c42.5,80.8,86.4,42.3,140.3,53.2c39.2,7.8,66.1,46.4,125.6,45.3c72.2-1.3,98-31.5,122.3-45.3
		c16.2-9.1,71.8,4.7,102.9-20.1c16-12.8,24.4-35,34.1-62.7c27.5-77.3-6.9-177.2-6.9-177.2s61.2,189,22.8,240.2
		c-37.8,50.2-92.5,78.7-290.8,76.7c-146.2-1.4-212.2-22.5-248.2-67.7c-41.6-52.2-12.1-136.1,5.1-205.8
		C142,324.9,115.8,430.6,135.2,467.6z"/>
	<g>
		<path class="st13" d="M500.7,450.8c62.1-15.5,52.4-27.4,97.5-50.5c70.2-36.3,90.8-58.8,110-84.8c19.2-26.1,41.3-87.5,22.5-137.2
			c-22.9-60.5-58.5-64.6-80.1-80.5c-50.2-37,36.2-40-1.2-76c-16.9-10.2-63.8-28.7-78.7,14.5c0,0-8.1,57.8,40.6,117.5
			c15.4,18.8,33.7,36.1,34.8,56.7c1.3,23.6-28.8,82.3-81.9,76.9c-35.7-3.8-155.3,38-180.8,41.3"/>
		<g>
			<ellipse class="st1" cx="615.2" cy="32.9" rx="31.3" ry="16.2"/>
			<ellipse class="st14" cx="617" cy="34.2" rx="27.6" ry="14.2"/>
		</g>
		<path class="st10" d="M460.3,414.1c0,0,6.4-8.6,49.2-9c32.2-0.3,98.9-22.1,154.3-86.6c53.8-62.7,51.9-163.9-5.2-197.1
			c-31.1-18.2-34.3-38.4-44.8-46.5C590.5,57,580.7,43,580.7,43s3.8,5,22,11.3c9.8,3.4,28.5,3.3,48.9-4.4c-5.5,2.1-21.4,16.3-19,31.3
			c16.4,33.7,62.5,32.7,82.1,71.3c28.4,55.8,21.4,117-6.9,162.1c-34.4,55-144.4,106.3-144.4,106.3s-37.5,31.3-68.7,31.3
			C494.4,419.8,460.4,430.1,460.3,414.1z"/>
		<path class="st17" d="M528.7,308.8c0,0-4.8-2.9,2.3-6.6c7.2-3.8,29.4-2.7,33.5-1.2c4.2,1.6,5.5,3,2.5,5.7
			C564,309.4,528.7,308.8,528.7,308.8z"/>
		<path class="st17" d="M514,307.5l4.6,0.1c1.6,0,2.7,1.3,2.6,2.9L521,315c0,1.6-1.3,2.7-2.9,2.6l-4.6-0.1c-1.6,0-2.7-1.3-2.6-2.9
			l0.1-4.6C511.2,308.7,512.4,307.5,514,307.5z"/>
		<g>
			<g>
				<path class="st10" d="M632.7,267.2v8.1c0,12,3.4,18.9,10,20.5l4.4,1c0.4,0.9-0.9,4.2-2.9,7.3l0,0c-1.3,2.1-2.3,3.5-4.4,4.2
					c0,0-12.2,3.6-14.5-21.5v-8.1c-0.4-0.9,0.9-4.2,2.9-7.3l0,0C630.2,268.1,632.1,266.3,632.7,267.2z"/>
				<path class="st10" d="M645.2,301.6c0,0-2.6,3.3-4,3.5c-1.4,0.1-7.3-0.3-10.8-5.9c-3.5-5.6-2.2-18-0.8-21.9
					c1.4-3.9,3.1-6.3,3.1-6.3s0-5.1-1-3.8s-6.3,4.4-6.5,18c-0.3,16.5,10.2,26.7,15.4,22.4C644.8,304.1,645.2,301.6,645.2,301.6z"/>
			</g>
			<g>
				<path class="st10" d="M643.5,253.8l-0.1,5.5c-0.3,8.2,2,12.6,6.8,13.2l3.1,0.3c0.3,0.5-0.7,2.9-2.2,5.2l0,0
					c-1,1.6-1.7,2.6-3.3,3.3c0,0-8.9,3.6-9.9-13.4l0.1-5.5c-0.3-0.5,0.7-2.9,2.2-5.2l0,0C641.8,254.6,643.2,253.2,643.5,253.8z"/>
				<path class="st10" d="M651.7,276.2c0,0-2,2.5-3,2.7s-5.2,0.5-7.7-3.1c-2.3-3.5-1.2-12.1,0-15c1.2-2.7,2.3-4.6,2.3-4.6
					s0.1-3.5-0.7-2.5c-0.8,1-4.6,3.6-5.1,12.9c-0.7,11.3,6.6,17.5,10.6,13.9C651.4,277.9,651.7,276.2,651.7,276.2z"/>
			</g>
			<g>
				<path class="st10" d="M654.8,239.1l-0.1,3.9c-0.3,5.9,1.4,9.1,4.8,9.4l2.2,0.3c0.3,0.4-0.5,2.1-1.6,3.8l0,0
					c-0.8,1.2-1.3,1.8-2.3,2.3c0,0-6.4,2.6-7-9.6l0.1-3.9c-0.3-0.4,0.5-2.1,1.6-3.8l0,0C653.6,239.7,654.7,238.7,654.8,239.1z"/>
				<path class="st10" d="M660.7,255.2c0,0-1.4,1.8-2.1,2c-0.7,0.1-3.8,0.4-5.5-2.2c-1.7-2.5-0.9-8.7,0-10.7s1.7-3.3,1.7-3.3
					s0-2.5-0.4-1.7c-0.4,0.8-3.3,2.6-3.6,9.3c-0.4,8.1,4.8,12.5,7.6,10C660.4,256.4,660.7,255.2,660.7,255.2z"/>
			</g>
		</g>
	</g>
	<path class="st1" d="M376.5,69.3"/>
	
		<ellipse transform="matrix(0.4141 -0.9102 0.9102 0.4141 114.8949 633.0571)" class="st1" cx="549.2" cy="227.3" rx="16.7" ry="32.3"/>
	<path class="st15" d="M227.2,284.7"/>
	<path class="st17" d="M562.2,113c0,0-1.4-5.3,6.4-3.1c7.8,2.2,23.1,18.4,24.9,22.4c1.8,4,1.8,6-2.1,5.9
		C587.5,138,562.2,113,562.2,113z"/>
	<path class="st17" d="M610.1,170.6h-6.3c-2.1,0-3.8-1.7-3.8-3.8v-6.3c0-2.1,1.7-3.8,3.8-3.8h6.3c2.1,0,3.8,1.7,3.8,3.8v6.3
		C613.8,168.9,612.1,170.6,610.1,170.6z"/>
	<g>
		<g>
			<circle class="st32" cx="371.8" cy="353" r="27.2"/>
			<circle class="st20" cx="371.8" cy="353" r="25.1"/>
		</g>
		<polygon class="st21" points="389.4,369.6 387.7,371.2 350.2,340.7 352.2,338.5 		"/>
		<path class="st21" d="M354.5,335.6c1.3-1.3,18.8-16.2,35.3,1.2c11.9,12.4,1.4,31,1.4,31L354.5,335.6z"/>
	</g>
	<path class="st14" d="M493.9,301.2l-46,2.6c-7.9,0.4-15.6,2.3-22.8,5.6l-42,19l-3.6-3.5l43.9-22.3c7.2-3.3,14.9-5.2,22.8-5.6
		l46.4-0.9L493.9,301.2z"/>
	<path class="st0" d="M307.9,408.7c0,2.7-11.1-2-24.6-2s-24.6,0.8-24.6-2c0-2.7,11.1-7.8,24.6-7.8S307.9,406,307.9,408.7z"/>
	<path class="st22" d="M508.1,293.4c-2.7-0.9-43.5,12.6-67.2,24.2c-23.7,11.6-34.1,30-34.1,30s2.1,10.2-5.6,20.5
		c-8.6,11.5-18.4,19.8-18.4,19.8l11.3,2c24-12.2,23.6-43.1,23.6-43.1s10.3-13.9,26.7-22c16.4-8.1,51.3-28.3,64.8-23.8"/>
	<path class="st3" d="M308.8,585.1c0,0-11.6-3.9-27.4-7.6c-15.6-3.6,10.6-19.5-1.3-32.3c-13.2-14.1-16.8-15.9-19.7-10.2
		c0,0-19,15.4-23.3,24.2c-4.3,8.9-3.4,19-0.7,30.7c1.7,7.2,10.8,24.6,29.8,27.9l27.9,3C294.3,621.2,304,618.7,308.8,585.1z"/>
</g>
</svg>
