<?xml version="1.0" encoding="utf-8"?>
<!-- Generator: Adobe Illustrator 22.0.0, SVG Export Plug-In . SVG Version: 6.00 Build 0)  -->
<svg version="1.1" id="图层_1" xmlns="http://www.w3.org/2000/svg" xmlns:xlink="http://www.w3.org/1999/xlink" x="0px" y="0px"
	 viewBox="0 0 24 24" style="enable-background:new 0 0 24 24;" xml:space="preserve" width="24" heigth="24">
<style type="text/css">
	.st0{fill:#1972EA;}
	.st1{fill:#EB3232;}
	.st2{fill:#FFFFFF;}
</style>
<path class="st0" d="M10.2,12c0,0.6,0.5,1,1,1s1-0.5,1-1s-0.5-1-1-1C10.6,11,10.2,11.4,10.2,12z"/>
<path class="st0" d="M14.4,12c0,0.6,0.5,1,1,1c0.6,0,1-0.5,1-1s-0.5-1-1-1S14.4,11.4,14.4,12z"/>
<path class="st0" d="M6,12c0,0.6,0.5,1,1,1s1-0.5,1-1s-0.5-1-1-1S6,11.4,6,12z"/>
<path class="st0" d="M19.9,8.3c-0.5-1.1-1.2-2.1-2-3c-0.9-0.9-1.9-1.6-3-2c-1.2-0.5-2.4-0.7-3.6-0.7h-0.1c-1.3,0-2.5,0.2-3.7,0.8
	c-1.1,0.4-2.1,1.1-3,2s-1.6,1.9-2,3C2,9.5,1.8,10.7,1.8,12c0,1.5,0.4,2.9,1,4.3v3.2c0,0.6,0.5,0.9,0.9,0.9H7c1.3,0.6,2.8,1,4.3,1
	h0.1c1.3,0,2.5-0.2,3.6-0.7s2.1-1.2,3-2c0.9-0.9,1.6-1.9,2-3c0.5-1.2,0.8-2.4,0.8-3.7C20.7,10.7,20.4,9.5,19.9,8.3z M16.8,17.5
	c-1.5,1.5-3.5,2.3-5.5,2.3l0,0c-1.3,0-2.5-0.3-3.6-0.9l-0.2-0.1H4.4v-3l-0.1-0.2c-0.6-1.1-0.9-2.4-0.9-3.6c0-2.1,0.8-4.1,2.3-5.6
	s3.5-2.3,5.5-2.3l0,0c1,0,2,0.2,3.1,0.6c0.9,0.4,1.8,0.9,2.5,1.7C17.5,7.1,18,8,18.4,8.9s0.6,2,0.6,3.1
	C19.1,14.1,18.3,16.1,16.8,17.5z"/>
<g>
	<circle class="st1" cx="19.1" cy="6.2" r="3.9"/>
	<path class="st2" d="M19.1,3.1c1.7,0,3.2,1.4,3.2,3.2s-1.4,3.2-3.2,3.2c-1.7,0-3.2-1.4-3.2-3.2S17.3,3.1,19.1,3.1 M19.1,1.5
		c-2.6,0-4.7,2.1-4.7,4.7s2.1,4.7,4.7,4.7s4.7-2.1,4.7-4.7S21.7,1.5,19.1,1.5L19.1,1.5z"/>
</g>
</svg>
