<?xml version="1.0" encoding="utf-8"?>
<!-- Generator: Adobe Illustrator 22.0.0, SVG Export Plug-In . SVG Version: 6.00 Build 0)  -->
<svg version="1.1" id="图层_1" xmlns="http://www.w3.org/2000/svg" xmlns:xlink="http://www.w3.org/1999/xlink"
  width="174px" height="60px"
	 viewBox="0 0 174 60" style="enable-background:new 0 0 174 60;" xml:space="preserve">
<style type="text/css">
	.st0{fill:#1972EA;}
</style>
<g>
	<g>
		<path class="st0" d="M19.2,55.5l5.4-1.8c0,0,1.9-0.6,4.4-4.8c1.4-2.4,3.7-3.6,6.2-2.9c2,0.4,3.6,3.2,3.6,3.2l1.8-0.5
			c1.5-0.5,2.4-0.5,2.4-2.9V13.7c0-1.9-1.6-3.5-3.5-3.5l-18.2,5.7c0,0,8.6,2,8.6,12.4c0,10.7-10,18.7-10.7,19.2c0,0,1.4,1.7,1.4,3.6
			C20.6,53.1,19.8,54.5,19.2,55.5z"/>
		<path class="st0" d="M31.3,5.6l-29,9.6c0,0-1.3,0.3-1.3,1.4v38.9c0,0,0,0.8,0.4,1.3c1.1,1.4,2.5,2.4,5.7,2.9
			c4.9,0.7,12-1.4,12-8.4c0-3-2.3-3.8-4.4-3.8c-3.7,0-3.6,3.9-3.5,4.5c0.1,0.5,0.3,1,1,1s0.9-0.5,0.9-0.9s-0.4-1.4,1-1.4
			c0.9,0,1.1,0.9,1.1,1.3c0,0,0.1,2.2-2.9,2.3c-3,0-2.7-2.6-2.7-2.9c0,0-0.2-5.4,5.2-5.4c0,0,1.4,0,2.2,0.5C17.9,46,28,39.8,28,28
			c0,0,0.2-10.7-9.6-10.7c-3.9-0.2-8.7,2.2-8.7,2.2S7.1,20,4.1,18.8c-1.1-0.5-1.2-1-1.2-1l27.8-9.5c0,0,0.8-0.1,1.5-0.1
			c0.7,0,1.3,0.3,1.9,0.7V7.3C34.1,7.4,33.5,5.6,31.3,5.6z M9.6,38.9c0.7,0,1.2,0.5,1.2,1.2s-0.5,1.2-1.2,1.2s-1.2-0.5-1.2-1.2
			S8.9,38.9,9.6,38.9z"/>
		<path class="st0" d="M35.2,9.7L6.7,18.9c0,0,0.2,0.1,0.6,0.2s0.8,0.1,0.8,0.1L36.4,10L35.2,9.7z"/>
		<path class="st0" d="M32.2,9L4.6,18c0,0,0,0.2,0.3,0.3c0.3,0.1,0.4,0.1,0.4,0.1l27.8-9.2L32.2,9z"/>
	</g>
	<g>
		<g>
			<path class="st0" d="M52.4,32.5v-1.9c3-3.7,4.2-8,4.7-13.5h2.3C58.8,24.1,56.8,29,52.4,32.5z M59.4,37.9v-2.4h2.4
				c0.8,0,1.3-0.1,1.3-0.8V12.9L66,13v21.7c0,2.1-1.1,3.2-3.3,3.2H59.4z M76.7,32.2c-4.4-3.4-6.4-8-7-15.1h2.2
				c0.4,5.6,1.6,9.5,4.8,13.2V32.2z"/>
		</g>
		<g>
			<path class="st0" d="M78.4,20.5v-1.4c2.3-1.5,3.8-3.6,4.5-6.3h2C84,16.5,81.8,19.1,78.4,20.5z M78.4,27.4V26
				c2.2-1.5,3.7-3.4,4.5-6h2c-0.5,1.5-1.1,2.8-1.7,3.7V38h-2V25.8C80.6,26.2,79.7,26.7,78.4,27.4z M82.8,37.9v-1.7
				c1.3-0.1,3.5-1,3.5-4.5v-4.9h7.2v9.4c1.2,0,1.3-0.4,2.2-1.2v1.8c-1.1,1.1-2.3,1-4,1v-9.7h-3.5v3.2C88.1,34.8,86.3,37.5,82.8,37.9
				z M85.3,24.7v-1.4h9.4v1.4H85.3z M85.4,21.2v-6.9H87v5.4h2.6v-6.6h1.6v6.6h1c0.9,0.1,1.4-0.4,1.3-1.3v-4.1H95v4.4
				c0.1,1.7-0.8,2.6-2.6,2.5H85.4z M106.3,37.9c-2.4-1.4-4.9-4-5.8-5.6c-2,3-4.2,4.2-5.5,5.1L94.8,36c1.6-1.6,3.8-3.8,4.7-5.4
				c-1.3-2.6-2.8-5.4-3.2-9.4c-0.3,0.3-0.6,0.6-1,1v-1.6c1.6-2.1,2.5-4.7,2.8-7.7h1.8c-0.2,1.3-0.4,2.4-0.7,3.4h4.2
				c0,0,0.8-0.1,1.3,0.3c0.5,0.5,0.5,1.1,0.5,1.1c-0.1,5.9-1.9,9.8-3.6,13c0.9,1.8,3.4,4,5,5.4l0,0L106.3,37.9L106.3,37.9z
				 M100.5,28.7c1-2.2,2.7-5.3,3-9.9c0-0.4,0-0.7-0.1-1c-0.2-0.2-0.8-0.2-0.8-0.2h-3.8c-0.4,0.9-1,1.8-1.6,2.7H98
				C98.3,23.9,99.6,26.4,100.5,28.7z"/>
		</g>
		<g>
			<path class="st0" d="M108.4,20.9v-1.3c2.7-1.3,4.6-3.5,5.4-6.5h2.2C115.2,16.8,112.7,19.5,108.4,20.9z M111.5,37.9V26.1
				c-0.4,0.3-1.2,0.7-2.4,1.2c-0.3,0.1-0.5,0.3-0.8,0.3v-1.4c2.8-1.3,4.6-3.4,5.4-6.4h2.2c-0.7,2.1-1.5,3.6-2.3,4.5V38L111.5,37.9
				L111.5,37.9z M117.2,21v-1.5h6.4v-2.7h-6.3v-1.5h6.8V13h2.2v2.3h6.4v4.2h0.6V21h-0.6v1.2c0.1,2.1-1,3.1-3.3,3h-3.1V28h6.9v1.5
				h-6.9v2.9h6.9v1.4h-6.9v4h-2.7v-4l-6.5-0.1v-1.4l6.5,0.1v-2.9h-6.5V28h6.4v-2.8h-6.4v-1.4h6.4V21H117.2z M130.3,16.8h-4v2.7h4
				V16.8z M128.9,23.8c1.3,0,1.4-0.5,1.4-1.6V21h-4v2.8H128.9z"/>
		</g>
		<g>
			<path class="st0" d="M135.6,16.6v-1.7h13v1.7h-4.2v6.5h3v1.7h-3v10.4c0.6,0,1.5,0,2.6-0.1c0.8-0.1,1.5-0.5,1.9-0.6l-0.4,2.3
				c-4,1.2-6.5,1-11.6,1.2v-2V21h2.1v14.7h2.9v-19L135.6,16.6z M146.6,22.8v-1.6c2.5-2.2,4-5,4.2-8.4h2.3c-0.2,1.3-0.6,2.5-1,3.7
				h5.1c0,0,0.8,0,1.1,0.5c0.3,0.3,0.3,1.2,0.3,1.2c-0.3,6.2-1.6,10.8-3.9,13.9c1.7,1.9,3.1,2.6,5.6,3.9v2c-3-1.2-5.4-2.8-6.8-4.4
				c-1.4,1.5-4.7,3.4-7.6,3.8l0.4-2.2c3-0.7,4.6-1.9,6-3.2c-1.9-2.5-3.2-6-4-10.5C147.9,21.9,147.3,22.4,146.6,22.8z M151.5,18.1
				c-0.5,0.9-1.2,1.8-2.1,2.6l1.2-0.1c0.8,4.3,1.8,7.6,3,9.6c1.7-2.6,2.7-6,3-10.7c0-0.4,0.1-0.9-0.1-1.2c-0.2-0.2-1-0.2-1-0.2
				S151.5,18.1,151.5,18.1z"/>
		</g>
		<g>
			<path class="st0" d="M52.6,53.1v-9.7h1v9h5.3v0.7H52.6z"/>
			<path class="st0" d="M63.4,53.1l-4-9.7h1.1l3.5,8.9l3.5-8.9h1.1l-4,9.7C64.6,53.1,63.4,53.1,63.4,53.1z"/>
			<path class="st0" d="M70,53.1v-0.7l6.4-8.3h-6.2v-0.7h7.5v0.7l-6.5,8.3H78v0.7H70z"/>
			<path class="st0" d="M80.5,53.1v-9.7h1v4.3h5.8v-4.3h1v9.7h-1v-4.7h-5.8v4.7H80.5z"/>
			<path class="st0" d="M91.2,53.1v-9.7h7.3v0.7h-6.3v3.7h5.9v0.7h-5.9v4h6.3v0.7h-7.3V53.1z"/>
			<path class="st0" d="M101.1,53.2v-9.7h1l5.9,8.3v-8.3h1v9.7h-1l-5.9-8.2v8.2H101.1z"/>
			<path class="st0" d="M120.6,46.2h-1.1c-0.5-1.5-1.6-2.3-3.3-2.3c-2.2,0.2-3.4,1.6-3.6,4.4c0.2,2.6,1.4,4.1,3.8,4.2
				c1.5,0,2.6-0.4,3.2-1.4v-2.5h-3.3V48h4.3v3.6c-0.8,1.1-2.2,1.7-4.1,1.7c-3.1-0.2-4.7-1.8-4.9-5c0.1-3.2,1.7-4.9,4.6-5
				C118.4,43.3,119.9,44.2,120.6,46.2z"/>
			<path class="st0" d="M123.3,52.7v-1.3h1.3v1.3H123.3z"/>
			<path class="st0" d="M136,46.2h-1c-0.4-1.4-1.4-2.2-2.9-2.3c-2.2,0.2-3.3,1.7-3.5,4.4c0.1,2.7,1.4,4.1,3.7,4.2
				c1.7,0,3-0.9,3.9-2.7V51c-0.8,1.5-2.2,2.3-4.1,2.3c-2.8-0.2-4.3-1.8-4.5-4.9c0.1-3.2,1.6-4.9,4.5-5.1
				C134.1,43.4,135.4,44.3,136,46.2z"/>
			<path class="st0" d="M142.9,53.3c-3-0.2-4.5-1.8-4.7-4.9c0.1-3.2,1.7-4.9,4.8-5.1c2.9,0.2,4.5,1.9,4.7,5
				C147.6,51.5,146,53.2,142.9,53.3z M142.9,52.6c2.4-0.1,3.6-1.5,3.7-4.3c-0.1-2.7-1.3-4.2-3.6-4.4c-2.3,0.2-3.5,1.6-3.7,4.4
				C139.5,51,140.7,52.5,142.9,52.6z"/>
			<path class="st0" d="M158.4,43.4h1.5v9.7h-1v-8.5l-3.4,8.5h-0.9l-3.3-8.5v8.5h-1v-9.7h1.4L155,52L158.4,43.4z"/>
		</g>
	</g>
	<g>
		<g>
			<path class="st0" d="M166.6,14.5c-3.5,0-6.4-2.9-6.4-6.4s2.9-6.4,6.4-6.4s6.4,2.9,6.4,6.4S170.1,14.5,166.6,14.5z M166.6,2.3
				c-3.2,0-5.9,2.6-5.9,5.9s2.6,5.9,5.9,5.9s5.9-2.6,5.9-5.9S169.8,2.3,166.6,2.3z"/>
		</g>
		<g>
			<path class="st0" d="M164.4,10.3V6c0-0.8-0.3-1.1-0.9-1.2V4.6h2.7c1.8,0,2.7,0.6,2.7,1.9c0,1.1-0.7,1.7-2.1,1.8l0,0
				c0.7,0.1,1.2,0.4,1.5,1.1c0,0,0,0.1,0.1,0.2c0.2,0.4,0.3,0.7,0.4,0.9c0,0.1,0.1,0.2,0.2,0.5v0.1c0.1,0.3,0.4,0.4,0.7,0.5v0.2
				h-1.6c-0.4-1.2-0.7-2-0.9-2.4c-0.3-0.6-0.7-0.9-1.4-0.9h-0.5v2c0,0.8,0.2,1.1,0.9,1.1v0.2h-2.7v-0.2
				C164.1,11.4,164.4,11,164.4,10.3z M165.3,8.2h0.5c1.3,0,2-0.6,2.1-1.7c0-1.1-0.6-1.6-1.9-1.6h-0.7L165.3,8.2L165.3,8.2z"/>
		</g>
	</g>
</g>
</svg>
