<?xml version="1.0" standalone="no"?><!DOCTYPE svg PUBLIC "-//W3C//DTD SVG 1.1//EN" "http://www.w3.org/Graphics/SVG/1.1/DTD/svg11.dtd"><svg t="1536824709452" class="icon" style="" viewBox="0 0 1024 1024" version="1.1" xmlns="http://www.w3.org/2000/svg" p-id="7442" xmlns:xlink="http://www.w3.org/1999/xlink" width="22" height="22"><defs><style type="text/css"></style></defs><path d="M931.961 577.5a643.36 643.36 0 0 0 0.066-28.9c2.593-131.284-36.478-241.948-113-320.063-36.5-37.247-80.89-65.835-131.758-85.313-7.895-70.912-84.91-126.745-178.458-126.745-93.547 0-170.554 55.833-178.452 126.745-50.865 19.478-95.249 48.066-131.746 85.315C122.071 306.655 82.986 417.1 85.588 547.986c-0.227 12.367-0.15 23.977 0.235 35.33-19.834 19.964-35.372 50.112-24.02 92.427 8.44 31.44 31.699 55 60.24 65.308 14.503 8.94 31.54 14.149 49.768 14.27 36.39 159.102 168.487 267.113 340.992 267.113 172.185 0 304.313-108.28 340.501-267.474 1.111 0.24 2.265 0.37 3.453 0.37 22.728 0 43.629-7.933 60.114-21.147 21.557-12.229 38.41-32.69 45.32-58.44 12.518-46.642-7.644-78.513-30.23-98.244zM358.294 387.693c2.738 4.588 68.477 112.985 192.344 159.971 34.169 12.962 69.18 20.38 103.037 27.548 67.922 14.39 132.08 27.981 175.79 84.72 0.455 0.596 0.963 1.138 1.483 1.658l-0.065 2.865c0 21.147-1.598 41.6-4.678 61.247-56.197 89.792-149.43 148.62-264.936 161.292-8.606-11.358-26.143-19.195-46.513-19.195-28.889 0-52.329 15.638-52.329 34.88 0 19.288 23.44 34.887 52.33 34.887 25.89 0 47.218-12.601 51.37-29.08 37.255-4.28 72.776-13.186 106.074-26.624 47.568-19.215 89.48-47.196 124.573-83.177 5.62-5.755 11.009-11.71 16.228-17.825-41.823 127.374-153.625 209.259-299.58 209.27-0.263-0.011-0.98-0.011-1.24-0.011-187.283 0-318.088-133.918-318.088-325.969l-0.35-18.27c-0.232-7.834 0.985-29.836 2.287-50.927C298.127 558.83 340.52 455.056 342.375 450.39l15.919-62.697zM425.63 678.71c0 33.43-27.108 60.547-60.55 60.547-33.438 0-60.546-27.117-60.546-60.547 0-33.441 27.108-60.552 60.547-60.552 33.438 0 60.549 27.11 60.549 60.552z m281.955 0c0 32.899-26.673 59.572-59.578 59.572s-59.583-26.673-59.583-59.572c0-32.911 26.678-59.584 59.583-59.584s59.578 26.673 59.578 59.584z" fill="#999999" p-id="7443"></path></svg>