<?xml version="1.0" encoding="utf-8"?>
<!-- Generator: Adobe Illustrator 22.0.0, SVG Export Plug-In . SVG Version: 6.00 Build 0)  -->
<svg version="1.1" id="图层_1" xmlns="http://www.w3.org/2000/svg" xmlns:xlink="http://www.w3.org/1999/xlink" width="116px" heigth="60px"
	 viewBox="0 0 116 60" style="enable-background:new 0 0 116 60;" xml:space="preserve">
<style type="text/css">
	.st0{fill:#231815;}
</style>
<g>
	<path class="st0" d="M5.1,25.9c0.3,0.4,0.2,0.8-0.2,1.3c-0.5,0.8-1,2.4-1.5,4.7C4,31.4,4.5,30.8,5,30c0.1-0.2,0.2-0.2,0.3-0.2V30
		c-0.3,0.7-0.6,1.6-0.7,2.7c-0.1,0.8-0.3,1.4-0.6,1.7c-1,0.1-1.7-0.7-2-2.2C2,32,2.1,31.6,2.3,31c0.2-1.2,0.4-2,0.5-2.5
		c-1.3,0.7-2.2,0.6-2.7-0.3c-0.2-0.1-0.3-0.2-0.3-0.3c0.1-0.1,0.2-0.2,0.3-0.3c0.2,0,0.7-0.2,1.3-0.6c-0.5,0.3-0.4,0.3,0.2-0.1
		c0.1-0.1,0.3-0.1,0.4-0.3c0.5-0.3,0.9-0.5,1.3-0.8C3.4,25.7,4,25.6,5.1,25.9z M5.5,21.7c-0.1,0.9-0.4,1.2-0.9,1.1
		C4,22.4,3.4,22.1,3,21.9c-0.2,0-0.2-0.1,0-0.3c0.4-0.5,0.7-0.8,1-0.8C4.8,20.9,5.3,21.2,5.5,21.7z M11.9,22.8
		c0.3-0.2,0.6-0.2,0.9,0.2c0.1,0.7,0.1,1.3-0.1,1.6c-0.7,0.7-1.7,1-2.8,0.8c-0.1,0.2-0.1,0.5-0.1,0.9c-0.1,0.5-0.1,1-0.1,1.6
		c-0.2,0.7-0.2,1.6,0,2.5c2.1-0.6,3.4-0.5,4,0.1c0.2,0.5,0,0.9-0.5,1.2c-1.4-0.2-2.8,0.1-4.2,0.8c-0.5,0.1-0.9,0-1.3-0.3
		c-0.1-0.2,0-0.4,0.1-0.6c-0.2-0.1-0.2-0.5,0-1.5C7.9,29.1,8,28,8,26.8c0-0.1,0-0.1,0-0.3c0.1-1.7,0.3-2.8,0.7-3.4
		C9,22.9,9.3,23,9.6,23.6c0,0.5,0.1,0.8,0.2,0.9C10.7,24.2,11.4,23.6,11.9,22.8z"/>
	<path class="st0" d="M23.7,20.5c0.1,0.2-0.2,0.9-0.9,2c-0.7,1-1.4,2.2-2.1,3.6c-0.5,0.9-1.7,2.3-3.6,4.1c-0.4,0.4-0.6,0.6-0.7,0.6
		l0.4-0.7c0.6-1,1.6-3,3-5.8c1.3-2.5,2.1-3.9,2.3-4.3c0-0.5,0-0.9-0.1-1.2c0-0.2,0.1-0.3,0.3-0.3C23,19.4,23.5,20,23.7,20.5z
		 M24.5,26.8c0.3,0.2,0.5,0.5,0.5,0.9c-0.5,1-1.6,2-3.3,2.8c0,0.2-0.1,0.7-0.3,1.5c-0.2,0.6-0.3,1.1-0.3,1.4c-0.1,0.2-0.1,0.3,0,0.3
		s0.3-0.1,0.5-0.3c0.8-0.8,1.7-1.7,2.7-2.7c0.1-0.2,0.2-0.1,0.2,0.1c-1.2,2.4-2.2,3.8-2.9,4.2c-0.8,0.1-1.3-0.3-1.4-1
		c-0.2,0-0.2-0.2,0-0.6c0.2-0.9,0.5-2,0.8-3.4c0.1-0.4,0.4-0.5,0.8-0.2c0.7-0.4,1.2-0.9,1.4-1.6c0-0.2-0.2-0.3-0.5-0.1
		c-1,0.3-1.7,0.4-2.1,0.1c-0.2-0.3-0.2-0.7,0.1-0.9c0.3,0.1,0.8-0.1,1.3-0.3C22.9,26.6,23.7,26.5,24.5,26.8z M23.9,22.5
		c0.3-0.1,1,0.2,1.9,0.8c0.2,0.2,0.1,0.4-0.1,0.6c-0.5,0.2-0.8,0.2-1-0.1c-0.3-0.4-0.7-0.7-0.9-0.9c-0.1,0-0.2-0.1-0.2-0.2
		C23.7,22.6,23.8,22.5,23.9,22.5z M27.6,25.8c0-0.2,0-0.3,0.1-0.3s0.2,0,0.3,0.1c0.8,1,1.1,1.7,0.8,2.1c-0.1,0.3-0.2,0.7-0.3,1.3
		c-0.1,0.3-0.1,0.5-0.1,0.5c-0.3,0.3-0.6,0.2-1-0.3c-0.3-0.6-0.3-1-0.2-1C27.3,28.1,27.5,27.3,27.6,25.8z M30.4,19.4
		c1.2,0.7,1.7,1.4,1.4,2.1c-0.3,0.8-0.5,2.2-0.8,4.3c-0.2,2.1-0.2,3.8-0.1,5.1c0.2,2.6,0.2,4.1,0.2,4.5c-0.2,0.7-0.5,0.9-1,0.6
		c-0.4-0.5-0.7-0.8-1-0.8c-0.6-0.1-0.5-0.2,0.1-0.2s0.9-0.3,0.9-1c0-0.1,0-1,0-2.8c0.1-5.1,0.2-8,0.2-8.7c-0.1-0.7-0.1-1.6-0.2-2.7
		C30.2,19.6,30.3,19.4,30.4,19.4z"/>
	<path class="st0" d="M49.1,32.1c0.7,0.1,1,0.5,1,1.4c-0.1,0.1-0.4,0.1-1.1,0.1c-0.2-0.1-0.5,0-0.7,0.2c-0.2,0.1-0.7,0.4-1.6,0.8
		c-0.2,0.1-0.3,0.1-0.3,0.1c0-0.1,0.1-0.2,0.3-0.3c0.1-0.1,0.3-0.2,0.5-0.4s0.3-0.3,0.5-0.4c-0.2,0-0.5,0-1.1,0.1
		c0.5-0.1,0.4-0.1-0.1,0c-0.6,0.2-1.3,0.3-1.9,0.3c-0.5,0.1-0.9,0.1-1.4,0.2c-0.3,0.2-1.1,0.3-2.5,0.5c-1.2,0.3-1.9,0.2-2.1-0.4
		c-0.1-0.3,0-0.4,0.3-0.4c0.1,0.2,0.6,0.1,1.6-0.2c0.9-0.3,1.8-0.6,2.6-0.8c0.1,0,0.2,0,0.3,0c0.7-0.1,1.1-0.2,1.4-0.3
		C46.2,32,47.6,31.9,49.1,32.1z M44.8,20.6c0-0.5,0.2-0.6,0.6-0.4c0.3,0.2,0.7,0.4,1.2,0.8c0.3,0.5,0.3,0.9-0.1,1.3
		c-0.3,0.3-0.4,1.2-0.4,2.8c1.7-0.2,2.6,0.1,2.8,1.1c-0.1,0.8-0.3,1.3-0.9,1.5c-0.3,0.1-0.6,0.1-0.7,0.3c-0.3,0.3-0.7,0.5-1.3,0.7
		c-0.1,1.5-0.1,2.5-0.2,3.1c-0.1,0.2-0.2,0.3-0.3,0.3c-0.1,0.1-0.2,0-0.3-0.3c-0.5-0.5-0.7-1.2-0.7-2.2c-0.1,0-0.1,0-0.3,0.1
		l-0.1,0.1c-0.1,0.1-0.1,0-0.1-0.1c0.2-0.1,0.3-0.2,0.5-0.3c0-0.9,0-2,0-3.4c-0.5,0.2-0.9,0.5-1.4,0.7c0,1.5,0,2.7,0,3.7
		c0.1,0.7-0.1,1.3-0.3,1.9c-0.1,0.2-0.2,0.3-0.3,0.3s-0.1-0.1-0.2-0.3c-0.3-1-0.5-1.7-0.4-2.2c0-0.6,0-1.3,0-2.2
		c-0.5,0.6-0.8,1.1-0.9,1.6c-1,0.7-1.7,0.6-1.9-0.3c-0.1-0.6,0-1.1,0.3-1.3c0.4-0.2,0.6-0.2,0.7,0.2c0.4-0.1,1-0.3,1.8-0.9
		c0-0.2,0-0.4,0-0.7c0-2.6,0-4.1-0.1-4.3c-0.1-0.1-0.1-0.3-0.2-0.5c0-0.5,0.2-0.6,0.7-0.4c0.6,0.5,1,1.1,1,1.6c0,0.8-0.1,1.8-0.2,3
		c0,0.2,0,0.3,0,0.4c0.1,0,0.3-0.1,0.7-0.3c0.4-0.1,0.7-0.2,0.8-0.3c0-0.8,0-1.9,0-3.2C44.8,21.5,44.8,20.9,44.8,20.6z M46.9,25.5
		c-0.4,0-0.7,0-0.8,0.1c0,0.8,0,1.6,0,2.4c0.4-0.3,0.8-1,1.1-1.9C47.4,25.7,47.3,25.5,46.9,25.5z"/>
	<path class="st0" d="M64.1,17.6c0.5-0.1,1,0,1.6,0.1c0.2,0.1,0.2,0.5-0.2,1.1c-0.3,0.6-0.8,1.3-1.3,1.9c-0.3,0.3-0.9,1.1-1.6,2.2
		c-0.3,0.6-0.6,1-0.9,1.4c-0.1,0.2-0.1,0.3,0.2,0.2c1.7-0.6,3.2-0.7,4.6-0.3c0.9,0.5,1.1,1.7,0.9,3.5c-0.5,2.4-1.9,4-4.2,4.7
		c-0.2,0.1-0.3,0.2-0.3,0.3c-0.1,0.1-0.1,0.2-0.2,0.3c-0.1,0.3-0.2,0.5-0.3,0.6c0.5,0.1,0.9,0.1,1.4,0.2c0.4,0.1,0.8,0.1,1.1,0.2
		c0.2,0.1,0.5,0.2,1.1,0.3c0.5,0.1,0.7,0.1,0.9,0.1c1.3,0.2,2.2,0.6,2.7,1c0.2,0.3,0.5,0.6,0.7,0.8c0.1,0.3-0.1,0.6-0.7,0.7
		c-0.2,0-0.5-0.2-1-0.5l-0.2-0.1c-2-1.3-4.2-1.9-6.5-1.8c-0.9,1.1-1.8,1.9-2.8,2.5c-1.5,0.7-2.4,0.6-2.8-0.3c0-0.9,0.3-1.5,0.9-1.9
		c0.9-0.6,2.1-0.9,3.6-0.9c0.1-0.1,0.2-0.2,0.3-0.4c0.3-0.3,0.5-0.6,0.5-0.7c0.1-0.2,0-0.3-0.1-0.3c-1.1,0.1-1.7-0.5-1.8-1.6
		c-0.1-0.8,0.3-1.6,1.4-2.3c0.5-0.4,1.1-0.5,1.6-0.2c0.5,0.4,0.7,1.2,0.6,2.5c-0.1,0.2-0.1,0.2,0.2,0.1c2.4-1.1,3.2-2.9,2.6-5.3
		c-0.2-0.7-0.7-1-1.5-0.9c-2.1,0.5-3.8,1.5-5,2.8c-0.3,0.3-0.6,0.3-0.9,0.2c-0.5-0.4-0.7-0.9-0.7-1.5c0.3-0.4,0.5-0.7,0.5-0.8
		c0.1-0.2,0.5-0.7,1-1.5c0.5-0.7,0.9-1.2,1.1-1.6c0.5-0.6,0.8-1.3,1-1.9c0-0.2-0.1-0.3-0.3-0.3c-1,0.3-1.8,0.2-2.5-0.3
		c-0.2,0-0.2-0.1,0.1-0.3C60.2,19,61.9,18.2,64.1,17.6z M60.1,34.4c-1.4,0-2.2,0.5-2.6,1.6c-0.1,0.2-0.1,0.3,0.2,0.3
		c0.7-0.1,1.6-0.7,2.6-1.7C60.3,34.6,60.3,34.5,60.1,34.4z M62,28.9c-0.6-0.1-1.1,0.4-1.4,1.6c0.2,0.5,0.7,0.7,1.6,0.7
		C62.5,30.1,62.4,29.4,62,28.9z"/>
	<path class="st0" d="M82.9,17.8c0.5-0.2,0.8-0.4,1.1-0.6c0.6-0.3,1.1-0.3,1.5,0c0.1,0.7-0.3,1.5-1,2.2c-0.1,0.1-0.2,0.1-0.2,0.2
		c0.1,0,0.2,0,0.4,0c1,0,1.5,0.1,1.6,0.4c0.3,0.3,0,0.6-0.9,0.9c-0.3,0.1-0.8,0.3-1.3,0.7c-0.4,0.2-0.6,0.3-0.7,0.3
		c-0.1-0.1,0-0.2,0.3-0.4c0.2-0.2,0.5-0.5,0.9-0.9c0.1-0.1,0.1-0.1,0.1-0.2s-0.1-0.1-0.2-0.1c-0.9,0.1-1.4-0.1-1.5-0.4l-0.1-0.1
		c0-0.2,0-0.3,0.1-0.4c0.2-0.4,0.5-0.9,0.7-1.4c0-0.1,0-0.2-0.1-0.2h-0.2c-0.9,0.2-1.8,0.8-2.5,1.7c-0.5,0.6-0.7,1.2-0.6,1.8
		c-0.2,0.5-0.5,0.6-0.9,0.3c-0.8-0.6-1.1-1-0.8-1.4c0-0.1,0-0.2-0.1-0.3h-0.1c-0.3,0.1-0.5,0.2-0.5,0.5c-0.2,0.9-0.7,1.6-1.5,1.9
		c-0.3,0.1-0.6,0.3-0.9,0.5c-0.2,0.1-0.5,0-0.7-0.3c-0.1-0.5,0.1-0.9,0.5-1.4c0.9-1,1.4-1.8,1.6-2.4c0.1-0.3,0.3-0.4,0.5-0.3
		s0.4,0.4,0.5,0.9c0,0.2,0.1,0.2,0.3,0.2c0.7-0.2,1.3-0.1,1.6,0.2c0.2,0.2,0.3,0.1,0.5-0.1C81.5,18.7,82.4,18,82.9,17.8z M76.8,27
		c0.1-0.6,0.3-1,0.8-1.1c0.6-0.1,0.9,0.1,0.9,0.6c0,0.6-0.2,0.9-0.7,0.9c-0.2,0-0.3,0.1-0.3,0.3c0,0.3-0.1,0.6-0.2,1
		c0,0.2,0,0.4,0,0.5c-0.2,0.7-0.3,1.5-0.3,2.4c-0.1,1-0.1,2.4,0,4.2c-0.1,0.5-0.2,0.7-0.4,0.9c-0.3,0.1-0.5,0-0.7-0.3
		c-0.2-0.4-0.3-0.9-0.1-1.6c0.1-0.6,0.2-1.2,0.3-1.7c0-1.4,0.1-2.7,0.4-3.9C76.6,28.7,76.7,28,76.8,27z M77.9,24
		c-0.1-0.1-0.1-0.2,0-0.3c0-0.1,0.1-0.1,0.3-0.1c0.5,0.1,0.8,0.4,1,0.9c0.1,0.3,0.1,0.6-0.2,0.9c-0.4,0.2-0.7-0.1-0.9-0.7
		C78.1,24.7,78,24.5,77.9,24z M86.6,25c-0.1,1.1-0.2,2.2-0.2,3.3c0.1,1,0.1,1.9,0.3,2.7c0.1,1.7,0.2,3,0.2,3.7
		c0.1,0.7,0.1,1.4,0,2.1c-0.3,0.9-0.7,1.2-1.2,0.9c-0.3-0.3-0.9-0.6-1.6-1L84,36.6c-0.5-0.3-0.7-0.5-0.7-0.7
		c0.1-0.2,0.3-0.2,0.8-0.1c1,0.4,1.4,0.3,1.3-0.3c0.1-0.6,0.1-1.7,0.1-3.4c-0.1-0.6-0.1-1.1-0.1-1.5c0-0.3,0-0.7,0.1-1.2
		c0.1-2.4,0-4.3-0.3-5.7c-0.1-0.2-0.2-0.2-0.5-0.2c-0.6,0.1-1.1,0.4-1.3,0.9c-0.6,1.1-2,1.8-4,2.1c-0.2,0-0.3,0-0.3-0.1
		s0.1-0.2,0.3-0.3c0.9-0.5,1.8-1.1,2.8-1.8c1.1-1,2.2-1.5,3.3-1.6C86.3,22.8,86.7,23.6,86.6,25z M83.4,27.5c0.3,2.1,0.4,3.9,0.1,5.3
		c-0.3,0.9-0.7,1.2-1.4,1C81.4,33.6,81,33,80.8,32c-0.1,1.1-0.5,1.6-1,1.3c-0.3-0.1-0.4-0.6-0.3-1.6c0-0.3,0-0.7,0.1-0.9
		c0.2-0.9,0.3-1.6,0.3-2.2c0-0.2,0.1-0.3,0.2-0.3s0.1,0.1,0.2,0.3c0.1,0.6,0.1,0.7,0.3,0.5c0.6-1,1.3-1.6,2.1-2
		c0.3-0.2,0.5-0.2,0.5-0.2C83.2,27,83.3,27.2,83.4,27.5z M82.2,28.2c-0.1-0.1-0.2-0.1-0.3-0.1c-0.4,0.3-0.8,0.8-1.2,1.3
		c-0.2,0.2-0.3,0.5-0.2,0.7c0,0.1,0,0.3,0,0.4c0.1,0.4,0.1,0.7,0.3,0.9c0.1-0.6,0.5-1.1,1.5-1.6c0.1-0.1,0.2-0.2,0.2-0.3
		c-0.1-0.1-0.1-0.3-0.2-0.6C82.2,28.6,82.2,28.3,82.2,28.2z M82.3,31.3c0-0.1-0.1-0.1-0.2-0.2c-0.5,0-0.7,0.2-0.7,0.5
		c-0.1,0.2,0.1,0.4,0.6,0.6c0,0.1,0.1,0.1,0.2,0S82.3,31.7,82.3,31.3z"/>
	<path class="st0" d="M103.7,21.8c1.1,0.4,1.5,1.3,1.1,2.6c-0.1,0.2-0.2,0.3-0.3,0.5V25c-0.4,1.7-1.4,3.1-3.1,4
		c-0.1,0.1-0.1,0.1-0.2,0.1v0.1c0,0.2,0,0.3-0.1,0.4c0.7-0.1,1.2-0.3,1.4-0.6c0.2-0.2,0.5-0.3,0.8-0.2c0.3,0.2,0.6,0.3,0.9,0.3
		c0.5,0.1,0.8,0.3,0.9,0.5c0,0.5-0.3,0.7-0.9,0.5c-0.5,0-1.1,0.1-1.6,0.3c-0.2,0.2-0.7,0.3-1.3,0.4c-0.2,0.1-0.2,0.2-0.2,0.3
		c0,0.3,0,1.1-0.1,2.2c0,0.8,0,1.3,0,1.5c-0.3,1.3-0.6,2.2-0.9,2.6c-0.1-0.1-0.2-0.6-0.2-1.4c0-0.7,0-1.6,0-2.4c0-0.8,0-1.4,0-1.9
		c0-0.1,0-0.1-0.1-0.1s-0.1,0-0.2,0c-0.2,0.1-0.4,0.1-0.7,0.3c-0.3,0.2-0.6,0.3-0.7,0.3c-1.4,0.4-2.6,0.3-3.4-0.3
		c-0.1-0.2,0.1-0.2,0.3-0.2c0.2,0.1,0.4,0,0.8-0.3c1.1-0.6,2.3-1,3.7-1.3c0.2,0,0.3-0.1,0.3-0.3c0.1-0.2,0.1-0.5,0.1-0.7
		c0-0.1-0.1-0.1-0.3-0.3v-0.1c-1-0.3-1.6-0.7-1.7-1c-0.6,0.5-1.2,0.3-1.8-0.7c-0.2-0.2-0.3-0.7-0.3-1.5c0.1-1,0.2-1.5,0.3-1.5
		c0.1,0.2,0.3,0.5,0.5,1.1c0.1,0.2,0.1,0.3,0.3,0.3c-0.1,0,0-0.1,0.1-0.2c0.1-0.1,0.1-0.2,0.1-0.3c0.1-0.2,0.1-0.1,0.2,0.1
		c0,0.1,0,0.2,0,0.3c-0.1,0.4,0,0.7,0.2,0.9s0.3,0.4,0.4,0.4c-0.1,0,0-0.2,0.3-0.5c0.1-0.1,0.1-0.2,0.1-0.3c0.1-0.3,0.6-0.7,1.6-1.1
		h0.1c0-0.1,0-0.1,0.1-0.2c0-0.2,0-0.5,0-0.7h-0.1c-0.2,0.1-0.5,0.1-0.9,0.3c-0.6,0.1-0.9,0.2-1,0.2c-0.3,0-0.5,0-0.5,0.1
		c-0.2,0.1-0.3,0.1-0.3,0c-0.1,0,0-0.1,0.1-0.3c0.2-0.2,0.4-0.3,0.7-0.5c0.1-0.1,0.3-0.1,0.5-0.3c0.6-0.3,1-0.5,1.2-0.6
		C101.4,22.1,102.7,21.7,103.7,21.8z M103.1,17.8c0.4-0.1,0.9,0,1.4,0.4c0.2,0.7-0.1,1.3-0.9,1.7c-0.9,0.4-1.9,0.9-3,1.6
		c-0.1,0.1-0.3,0.1-0.5,0.3c-0.3,0.1-0.7,0.2-0.9,0.3c0.8-0.6,1.7-1.4,2.7-2.4c0.6-0.8,0.8-1.3,0.8-1.5c-1.3,0.5-2.3,1.2-3.2,2.2
		c-0.6,0.8-1.2,1.1-1.6,1c-0.7-0.2-1-0.8-0.9-1.7c0.1-0.3,0.3-0.5,0.4-0.6s0.2,0,0.3,0.2c0,0.3,0.2,0.4,0.6,0.3
		c0.2-0.1,0.5-0.1,0.7-0.1c0.2,0.1,0.7-0.1,1.7-0.7c0.5-0.2,1.2-0.5,2.2-0.9C102.9,17.9,103,17.9,103.1,17.8z M100.1,26.3
		c0-0.1,0-0.1-0.1-0.2c-0.3,0.1-0.6,0.1-0.8,0.1c-0.3,0.1-0.5,0.4-0.6,0.9c-0.1,0.1,0,0.2,0.2,0.2c0.1,0.1,0.1,0.2,0.3,0.3
		c0.1,0.3,0.4,0.4,0.9,0.4c0.1,0,0.1-0.1,0.1-0.3C100.1,27.1,100.1,26.7,100.1,26.3z M103.1,23.2c0-0.2-0.1-0.2-0.4-0.1
		c-0.2,0.1-0.8,0.3-1.8,0.5c0.2,0.3,0.4,0.6,0.4,0.9c-0.1,0.1,0,0.2,0.1,0.2c0.3,0.1,0.5,0.2,0.5,0.3c0.1,0.2-0.1,0.4-0.5,0.6
		c-0.1,0-0.1,0.1-0.1,0.2c-0.1,0.2-0.1,0.7-0.1,1.4C102.4,26.2,103,24.9,103.1,23.2z"/>
	<path class="st0" d="M113.3,26.3v-1.5c-0.2-1.1-0.4-2-0.7-2.4c-0.1-0.3,0.2-0.6,0.8-0.8c0.6,0.2,1,0.7,1.3,1.4
		c-0.1,0.2-0.1,0.5-0.2,0.8c-0.2,0.9-0.3,1.8-0.3,2.6c0,1.4,0,2.4,0.1,2.9s0.1,0.8,0.1,1c-0.1,0.3-0.3,0.5-0.6,0.5
		c-0.2,0.1-0.5-0.1-0.8-0.5c-0.1-0.5,0-1.1,0.1-2C113.2,27.5,113.3,26.9,113.3,26.3z M113.8,34.1c-0.8,0-1.2-0.4-1.2-1.1
		c0-0.7,0.4-1.1,1.2-1.1c0.7,0.1,1.1,0.4,1.2,1.1C114.9,33.7,114.5,34.1,113.8,34.1z"/>
</g>
</svg>
